STARTFONT 2.1
FONT -FontForge-Hanalei-Book-R-Normal--14-140-72-72-P-70-ISO10646-1
SIZE 14 72 72
FONTBOUNDINGBOX 18 19 -1 -4
COMMENT "Generated by fontforge, http://fontforge.sourceforge.net"
COMMENT "Copyright (c) 2012 by Brian J. Bonislawsky DBA Astigmatic (AOETI) (astigma@astigmatic.com), with ReservedFont Name "Hanalei""
STARTPROPERTIES 39
FOUNDRY "FontForge"
FAMILY_NAME "Hanalei"
WEIGHT_NAME "Book"
SLANT "R"
SETWIDTH_NAME "Normal"
ADD_STYLE_NAME ""
PIXEL_SIZE 14
POINT_SIZE 140
RESOLUTION_X 72
RESOLUTION_Y 72
SPACING "P"
AVERAGE_WIDTH 70
CHARSET_REGISTRY "ISO10646"
CHARSET_ENCODING "1"
FONTNAME_REGISTRY ""
CHARSET_COLLECTIONS "ISO8859-2 ISO8859-9 ISO8859-4 ISO10646-1"
FONT_NAME "Hanalei-Regular"
FACE_NAME "Hanalei"
COPYRIGHT "Copyright (c) 2012 by Brian J. Bonislawsky DBA Astigmatic (AOETI) (astigma@astigmatic.com), with ReservedFont Name "Hanalei""
FONT_VERSION "1.000"
FONT_ASCENT 11
FONT_DESCENT 3
UNDERLINE_POSITION -2
UNDERLINE_THICKNESS 1
X_HEIGHT 8
CAP_HEIGHT 8
RAW_ASCENT 799
RAW_DESCENT 200
NORM_SPACE 3
RELATIVE_WEIGHT 40
RELATIVE_SETWIDTH 50
SUPERSCRIPT_X 0
SUPERSCRIPT_Y 6
SUPERSCRIPT_SIZE 9
SUBSCRIPT_X 0
SUBSCRIPT_Y 1
SUBSCRIPT_SIZE 9
AVG_LOWERCASE_WIDTH 75
AVG_UPPERCASE_WIDTH 74
ENDPROPERTIES
CHARS 366
STARTCHAR space
ENCODING 32
SWIDTH 200 0
DWIDTH 3 0
BBX 1 1 0 0
BITMAP
00
ENDCHAR
STARTCHAR exclam
ENCODING 33
SWIDTH 257 0
DWIDTH 4 0
BBX 3 10 0 0
BITMAP
60
A0
A0
E0
A0
A0
A0
40
E0
E0
ENDCHAR
STARTCHAR quotedbl
ENCODING 34
SWIDTH 476 0
DWIDTH 7 0
BBX 6 6 0 4
BITMAP
FC
AC
F4
B4
B4
48
ENDCHAR
STARTCHAR numbersign
ENCODING 35
SWIDTH 1076 0
DWIDTH 15 0
BBX 15 10 0 0
BITMAP
737C
7594
6D7A
77AA
A5AE
95B2
6B46
AB38
A944
E77C
ENDCHAR
STARTCHAR dollar
ENCODING 36
SWIDTH 453 0
DWIDTH 6 0
BBX 6 13 0 -2
BITMAP
38
28
2C
54
88
F0
6C
34
6C
9C
E8
30
30
ENDCHAR
STARTCHAR percent
ENCODING 37
SWIDTH 889 0
DWIDTH 12 0
BBX 12 10 0 0
BITMAP
5000
AB00
DB00
DF00
BD60
7790
0770
0770
0BB0
04F0
ENDCHAR
STARTCHAR ampersand
ENCODING 38
SWIDTH 627 0
DWIDTH 9 0
BBX 9 10 0 0
BITMAP
3E00
5700
2900
3A00
2C00
5400
9B80
AA80
D900
E600
ENDCHAR
STARTCHAR quotesingle
ENCODING 39
SWIDTH 246 0
DWIDTH 3 0
BBX 3 6 0 4
BITMAP
E0
A0
E0
A0
A0
40
ENDCHAR
STARTCHAR parenleft
ENCODING 40
SWIDTH 387 0
DWIDTH 5 0
BBX 6 12 0 -1
BITMAP
10
28
48
70
90
A0
A0
50
70
28
24
18
ENDCHAR
STARTCHAR parenright
ENCODING 41
SWIDTH 386 0
DWIDTH 5 0
BBX 6 12 0 -1
BITMAP
60
A0
50
68
28
24
38
28
50
90
A0
40
ENDCHAR
STARTCHAR asterisk
ENCODING 42
SWIDTH 517 0
DWIDTH 7 0
BBX 7 6 0 4
BITMAP
38
52
AE
6C
34
6C
ENDCHAR
STARTCHAR plus
ENCODING 43
SWIDTH 458 0
DWIDTH 6 0
BBX 6 6 0 2
BITMAP
10
28
7C
94
7C
38
ENDCHAR
STARTCHAR comma
ENCODING 44
SWIDTH 228 0
DWIDTH 3 0
BBX 3 4 0 -2
BITMAP
40
A0
C0
C0
ENDCHAR
STARTCHAR hyphen
ENCODING 45
SWIDTH 465 0
DWIDTH 7 0
BBX 6 3 0 3
BITMAP
FC
94
7C
ENDCHAR
STARTCHAR period
ENCODING 46
SWIDTH 202 0
DWIDTH 3 0
BBX 3 2 0 0
BITMAP
E0
E0
ENDCHAR
STARTCHAR slash
ENCODING 47
SWIDTH 453 0
DWIDTH 6 0
BBX 6 10 0 0
BITMAP
08
14
14
38
28
48
70
50
A0
60
ENDCHAR
STARTCHAR zero
ENCODING 48
SWIDTH 646 0
DWIDTH 9 0
BBX 9 10 0 0
BITMAP
1C00
2C00
2A00
5500
E480
A280
9500
6B00
3400
1C00
ENDCHAR
STARTCHAR one
ENCODING 49
SWIDTH 400 0
DWIDTH 6 0
BBX 5 10 0 0
BITMAP
38
68
A8
D8
28
28
18
28
28
38
ENDCHAR
STARTCHAR two
ENCODING 50
SWIDTH 502 0
DWIDTH 7 0
BBX 7 10 0 0
BITMAP
38
48
94
AA
4E
34
48
94
DA
FE
ENDCHAR
STARTCHAR three
ENCODING 51
SWIDTH 456 0
DWIDTH 6 0
BBX 6 10 0 0
BITMAP
70
88
7C
28
70
48
2C
74
9C
F0
ENDCHAR
STARTCHAR four
ENCODING 52
SWIDTH 514 0
DWIDTH 7 0
BBX 7 10 0 0
BITMAP
1C
2A
2A
7C
AA
BE
DA
2C
0C
1E
ENDCHAR
STARTCHAR five
ENCODING 53
SWIDTH 500 0
DWIDTH 7 0
BBX 7 10 0 0
BITMAP
5C
B2
BC
E0
9C
7A
0A
7E
92
FC
ENDCHAR
STARTCHAR six
ENCODING 54
SWIDTH 520 0
DWIDTH 7 0
BBX 7 10 0 0
BITMAP
30
28
50
70
58
54
BE
BA
A6
F8
ENDCHAR
STARTCHAR seven
ENCODING 55
SWIDTH 423 0
DWIDTH 6 0
BBX 6 10 0 0
BITMAP
EC
94
FC
14
2C
28
38
50
50
70
ENDCHAR
STARTCHAR eight
ENCODING 56
SWIDTH 527 0
DWIDTH 7 0
BBX 7 10 0 0
BITMAP
72
8E
FA
5A
2C
24
5C
B2
AA
7E
ENDCHAR
STARTCHAR nine
ENCODING 57
SWIDTH 500 0
DWIDTH 7 0
BBX 7 10 0 0
BITMAP
08
76
9E
FA
94
54
38
28
48
70
ENDCHAR
STARTCHAR colon
ENCODING 58
SWIDTH 245 0
DWIDTH 3 0
BBX 2 7 1 0
BITMAP
C0
C0
00
00
00
C0
C0
ENDCHAR
STARTCHAR semicolon
ENCODING 59
SWIDTH 270 0
DWIDTH 4 0
BBX 3 9 0 -2
BITMAP
60
60
00
00
00
60
A0
A0
C0
ENDCHAR
STARTCHAR less
ENCODING 60
SWIDTH 445 0
DWIDTH 6 0
BBX 6 8 0 1
BITMAP
08
34
5C
90
A0
D8
24
18
ENDCHAR
STARTCHAR equal
ENCODING 61
SWIDTH 484 0
DWIDTH 7 0
BBX 6 6 0 2
BITMAP
FC
94
7C
7C
94
FC
ENDCHAR
STARTCHAR greater
ENCODING 62
SWIDTH 445 0
DWIDTH 6 0
BBX 6 8 0 1
BITMAP
40
B0
68
24
1C
64
98
60
ENDCHAR
STARTCHAR question
ENCODING 63
SWIDTH 455 0
DWIDTH 6 0
BBX 6 10 0 0
BITMAP
60
98
54
3C
48
70
50
20
70
60
ENDCHAR
STARTCHAR at
ENCODING 64
SWIDTH 812 0
DWIDTH 11 0
BBX 11 11 0 -1
BITMAP
7FC0
52C0
6D40
7EA0
B5E0
ABA0
F6A0
B7E0
B800
7400
0800
ENDCHAR
STARTCHAR A
ENCODING 65
SWIDTH 507 0
DWIDTH 7 0
BBX 7 10 0 0
BITMAP
30
28
54
74
5C
56
AA
AE
BA
EE
ENDCHAR
STARTCHAR B
ENCODING 66
SWIDTH 533 0
DWIDTH 7 0
BBX 7 11 0 -1
BITMAP
70
4E
B2
7E
AA
AC
F2
BE
CE
D8
20
ENDCHAR
STARTCHAR C
ENCODING 67
SWIDTH 515 0
DWIDTH 7 0
BBX 7 10 0 0
BITMAP
7C
4A
7E
60
50
A0
E0
BE
AA
FE
ENDCHAR
STARTCHAR D
ENCODING 68
SWIDTH 520 0
DWIDTH 7 0
BBX 7 10 0 0
BITMAP
70
48
A4
7A
AA
A6
FA
A4
A8
F0
ENDCHAR
STARTCHAR E
ENCODING 69
SWIDTH 490 0
DWIDTH 7 0
BBX 7 10 0 0
BITMAP
7E
AA
9E
60
BC
A4
F8
9C
B2
FC
ENDCHAR
STARTCHAR F
ENCODING 70
SWIDTH 475 0
DWIDTH 7 0
BBX 7 10 0 0
BITMAP
7E
AA
9E
60
BC
A4
F8
A0
A0
E0
ENDCHAR
STARTCHAR G
ENCODING 71
SWIDTH 557 0
DWIDTH 8 0
BBX 8 10 0 0
BITMAP
7C
4A
7E
60
56
A5
E7
B9
AD
FF
ENDCHAR
STARTCHAR H
ENCODING 72
SWIDTH 611 0
DWIDTH 9 0
BBX 9 10 0 0
BITMAP
6700
A500
A500
6700
A500
A680
FC80
BF00
A500
E700
ENDCHAR
STARTCHAR I
ENCODING 73
SWIDTH 266 0
DWIDTH 4 0
BBX 3 10 0 0
BITMAP
60
A0
A0
60
A0
A0
E0
A0
A0
E0
ENDCHAR
STARTCHAR J
ENCODING 74
SWIDTH 484 0
DWIDTH 7 0
BBX 6 11 0 -1
BITMAP
0C
0C
0C
0C
0C
CC
AC
54
4C
2C
10
ENDCHAR
STARTCHAR K
ENCODING 75
SWIDTH 541 0
DWIDTH 8 0
BBX 8 10 0 0
BITMAP
66
A5
A9
76
A4
AC
F6
AA
AA
EE
ENDCHAR
STARTCHAR L
ENCODING 76
SWIDTH 467 0
DWIDTH 7 0
BBX 7 10 0 0
BITMAP
60
A0
A0
60
A0
A0
E0
9E
92
FE
ENDCHAR
STARTCHAR M
ENCODING 77
SWIDTH 733 0
DWIDTH 10 0
BBX 10 10 0 0
BITMAP
3300
5280
5380
7F80
5540
9540
F7C0
AF40
AAC0
ECC0
ENDCHAR
STARTCHAR N
ENCODING 78
SWIDTH 598 0
DWIDTH 8 0
BBX 8 10 0 0
BITMAP
63
95
AD
7F
A5
95
7B
AB
A9
E7
ENDCHAR
STARTCHAR O
ENCODING 79
SWIDTH 612 0
DWIDTH 9 0
BBX 8 10 0 0
BITMAP
7E
49
7D
67
55
A5
E3
BF
A9
FF
ENDCHAR
STARTCHAR P
ENCODING 80
SWIDTH 513 0
DWIDTH 7 0
BBX 7 10 0 0
BITMAP
70
4C
B2
6E
92
AC
78
A0
A0
E0
ENDCHAR
STARTCHAR Q
ENCODING 81
SWIDTH 612 0
DWIDTH 9 0
BBX 8 12 0 -2
BITMAP
7E
49
7D
67
55
A5
E3
BF
A9
EF
54
1C
ENDCHAR
STARTCHAR R
ENCODING 82
SWIDTH 532 0
DWIDTH 7 0
BBX 8 10 0 0
BITMAP
78
46
B9
66
9A
94
74
AA
A9
E7
ENDCHAR
STARTCHAR S
ENCODING 83
SWIDTH 442 0
DWIDTH 6 0
BBX 6 10 0 0
BITMAP
7C
B4
B8
50
70
28
18
54
B4
F8
ENDCHAR
STARTCHAR T
ENCODING 84
SWIDTH 453 0
DWIDTH 6 0
BBX 6 10 0 0
BITMAP
FC
94
FC
38
28
28
38
28
28
38
ENDCHAR
STARTCHAR U
ENCODING 85
SWIDTH 583 0
DWIDTH 8 0
BBX 8 10 0 0
BITMAP
66
55
55
66
A5
A5
E7
BD
A9
7F
ENDCHAR
STARTCHAR V
ENCODING 86
SWIDTH 506 0
DWIDTH 7 0
BBX 7 9 0 0
BITMAP
EE
AA
EE
92
54
7C
54
24
38
ENDCHAR
STARTCHAR W
ENCODING 87
SWIDTH 735 0
DWIDTH 10 0
BBX 10 10 0 0
BITMAP
4080
AF40
AB40
EFC0
BA40
5580
6F80
5E80
2A80
3B80
ENDCHAR
STARTCHAR X
ENCODING 88
SWIDTH 483 0
DWIDTH 7 0
BBX 7 9 0 0
BITMAP
EE
B4
54
68
28
74
94
AA
EC
ENDCHAR
STARTCHAR Y
ENCODING 89
SWIDTH 484 0
DWIDTH 7 0
BBX 7 10 0 0
BITMAP
04
CA
AA
5C
54
24
38
28
50
30
ENDCHAR
STARTCHAR Z
ENCODING 90
SWIDTH 458 0
DWIDTH 6 0
BBX 7 10 0 0
BITMAP
7C
94
7E
14
28
48
70
9C
B4
7C
ENDCHAR
STARTCHAR bracketleft
ENCODING 91
SWIDTH 420 0
DWIDTH 6 0
BBX 6 12 0 -1
BITMAP
18
64
98
A0
60
A0
A0
E0
A0
BC
A4
78
ENDCHAR
STARTCHAR backslash
ENCODING 92
SWIDTH 453 0
DWIDTH 6 0
BBX 6 10 0 0
BITMAP
40
A0
50
70
50
28
38
14
14
08
ENDCHAR
STARTCHAR bracketright
ENCODING 93
SWIDTH 420 0
DWIDTH 6 0
BBX 6 12 0 -1
BITMAP
60
98
64
18
18
14
14
28
14
D4
A4
F8
ENDCHAR
STARTCHAR asciicircum
ENCODING 94
SWIDTH 353 0
DWIDTH 5 0
BBX 5 3 0 6
BITMAP
70
70
F8
ENDCHAR
STARTCHAR underscore
ENCODING 95
SWIDTH 499 0
DWIDTH 7 0
BBX 5 3 1 -4
BITMAP
F8
A8
F8
ENDCHAR
STARTCHAR grave
ENCODING 96
SWIDTH 183 0
DWIDTH 3 0
BBX 3 3 0 11
BITMAP
40
C0
E0
ENDCHAR
STARTCHAR a
ENCODING 97
SWIDTH 507 0
DWIDTH 7 0
BBX 7 10 0 0
BITMAP
30
28
54
74
5C
56
AA
AE
BA
EE
ENDCHAR
STARTCHAR b
ENCODING 98
SWIDTH 533 0
DWIDTH 7 0
BBX 7 11 0 -1
BITMAP
70
4E
B2
7E
AA
AC
F2
BE
CE
D8
20
ENDCHAR
STARTCHAR c
ENCODING 99
SWIDTH 515 0
DWIDTH 7 0
BBX 7 10 0 0
BITMAP
7C
4A
7E
60
50
A0
E0
BE
AA
FE
ENDCHAR
STARTCHAR d
ENCODING 100
SWIDTH 520 0
DWIDTH 7 0
BBX 7 10 0 0
BITMAP
70
48
A4
7A
AA
A6
FA
A4
A8
F0
ENDCHAR
STARTCHAR e
ENCODING 101
SWIDTH 490 0
DWIDTH 7 0
BBX 7 10 0 0
BITMAP
7E
AA
9E
60
BC
A4
F8
9C
B2
FC
ENDCHAR
STARTCHAR f
ENCODING 102
SWIDTH 475 0
DWIDTH 7 0
BBX 7 10 0 0
BITMAP
7E
AA
9E
60
BC
A4
F8
A0
A0
E0
ENDCHAR
STARTCHAR g
ENCODING 103
SWIDTH 557 0
DWIDTH 8 0
BBX 8 10 0 0
BITMAP
7C
4A
7E
60
56
A5
E7
B9
AD
FF
ENDCHAR
STARTCHAR h
ENCODING 104
SWIDTH 611 0
DWIDTH 9 0
BBX 9 10 0 0
BITMAP
6700
A500
A500
6700
A500
A680
FC80
BF00
A500
E700
ENDCHAR
STARTCHAR i
ENCODING 105
SWIDTH 266 0
DWIDTH 4 0
BBX 3 10 0 0
BITMAP
60
A0
A0
60
A0
A0
E0
A0
A0
E0
ENDCHAR
STARTCHAR j
ENCODING 106
SWIDTH 482 0
DWIDTH 7 0
BBX 6 11 0 -1
BITMAP
0C
0C
0C
0C
0C
CC
AC
54
4C
2C
10
ENDCHAR
STARTCHAR k
ENCODING 107
SWIDTH 541 0
DWIDTH 8 0
BBX 8 10 0 0
BITMAP
66
A5
A9
76
A4
AC
F6
AA
AA
EE
ENDCHAR
STARTCHAR l
ENCODING 108
SWIDTH 467 0
DWIDTH 7 0
BBX 7 10 0 0
BITMAP
60
A0
A0
60
A0
A0
E0
9E
92
FE
ENDCHAR
STARTCHAR m
ENCODING 109
SWIDTH 733 0
DWIDTH 10 0
BBX 10 10 0 0
BITMAP
3300
5280
5380
7F80
5540
9540
F7C0
AF40
AAC0
ECC0
ENDCHAR
STARTCHAR n
ENCODING 110
SWIDTH 598 0
DWIDTH 8 0
BBX 8 10 0 0
BITMAP
63
95
AD
7F
A5
95
7B
AB
A9
E7
ENDCHAR
STARTCHAR o
ENCODING 111
SWIDTH 612 0
DWIDTH 9 0
BBX 8 10 0 0
BITMAP
7E
49
7D
67
55
A5
E3
BF
A9
FF
ENDCHAR
STARTCHAR p
ENCODING 112
SWIDTH 513 0
DWIDTH 7 0
BBX 7 10 0 0
BITMAP
70
4C
B2
6E
92
AC
78
A0
A0
E0
ENDCHAR
STARTCHAR q
ENCODING 113
SWIDTH 612 0
DWIDTH 9 0
BBX 8 12 0 -2
BITMAP
7E
49
7D
67
55
A5
E3
BF
A9
EF
54
1C
ENDCHAR
STARTCHAR r
ENCODING 114
SWIDTH 532 0
DWIDTH 7 0
BBX 8 10 0 0
BITMAP
78
46
B9
66
9A
94
74
AA
A9
E7
ENDCHAR
STARTCHAR s
ENCODING 115
SWIDTH 442 0
DWIDTH 6 0
BBX 6 10 0 0
BITMAP
7C
B4
B8
50
70
28
18
54
B4
F8
ENDCHAR
STARTCHAR t
ENCODING 116
SWIDTH 453 0
DWIDTH 6 0
BBX 6 10 0 0
BITMAP
FC
94
FC
38
28
28
38
28
28
38
ENDCHAR
STARTCHAR u
ENCODING 117
SWIDTH 583 0
DWIDTH 8 0
BBX 8 10 0 0
BITMAP
66
55
55
66
A5
A5
E7
BD
A9
7F
ENDCHAR
STARTCHAR v
ENCODING 118
SWIDTH 506 0
DWIDTH 7 0
BBX 7 9 0 0
BITMAP
EE
AA
EE
92
54
7C
54
24
38
ENDCHAR
STARTCHAR w
ENCODING 119
SWIDTH 735 0
DWIDTH 10 0
BBX 10 10 0 0
BITMAP
4080
AF40
AB40
EFC0
BA40
5580
6F80
5E80
2A80
3B80
ENDCHAR
STARTCHAR x
ENCODING 120
SWIDTH 483 0
DWIDTH 7 0
BBX 7 9 0 0
BITMAP
EE
B4
54
68
28
74
94
AA
EC
ENDCHAR
STARTCHAR y
ENCODING 121
SWIDTH 484 0
DWIDTH 7 0
BBX 7 10 0 0
BITMAP
04
CA
AA
5C
54
24
38
28
50
30
ENDCHAR
STARTCHAR z
ENCODING 122
SWIDTH 458 0
DWIDTH 6 0
BBX 7 10 0 0
BITMAP
7C
94
7E
14
28
48
70
9C
B4
7C
ENDCHAR
STARTCHAR braceleft
ENCODING 123
SWIDTH 473 0
DWIDTH 7 0
BBX 6 12 0 -1
BITMAP
0C
74
2C
38
78
88
D8
28
30
58
54
3C
ENDCHAR
STARTCHAR bar
ENCODING 124
SWIDTH 263 0
DWIDTH 4 0
BBX 3 12 0 -1
BITMAP
60
A0
60
A0
E0
A0
A0
60
A0
A0
A0
60
ENDCHAR
STARTCHAR braceright
ENCODING 125
SWIDTH 473 0
DWIDTH 7 0
BBX 7 12 0 -1
BITMAP
50
A8
68
38
54
6A
76
28
38
68
94
F8
ENDCHAR
STARTCHAR asciitilde
ENCODING 126
SWIDTH 456 0
DWIDTH 6 0
BBX 6 4 0 3
BITMAP
7C
74
E8
10
ENDCHAR
STARTCHAR nonbreakingspace
ENCODING 160
SWIDTH 200 0
DWIDTH 3 0
BBX 1 1 0 0
BITMAP
00
ENDCHAR
STARTCHAR exclamdown
ENCODING 161
SWIDTH 259 0
DWIDTH 4 0
BBX 3 10 0 0
BITMAP
60
60
60
60
A0
A0
E0
A0
A0
E0
ENDCHAR
STARTCHAR cent
ENCODING 162
SWIDTH 480 0
DWIDTH 7 0
BBX 6 13 0 -2
BITMAP
38
28
2C
54
D8
A0
E0
A0
B8
54
2C
28
10
ENDCHAR
STARTCHAR sterling
ENCODING 163
SWIDTH 594 0
DWIDTH 8 0
BBX 8 10 0 0
BITMAP
18
26
32
2E
5C
AA
5C
2F
29
3F
ENDCHAR
STARTCHAR currency
ENCODING 164
SWIDTH 640 0
DWIDTH 9 0
BBX 9 8 0 1
BITMAP
EF80
9A80
7900
4E80
5D00
6700
BA80
4D00
ENDCHAR
STARTCHAR yen
ENCODING 165
SWIDTH 575 0
DWIDTH 8 0
BBX 8 9 0 0
BITMAP
E7
95
5E
2A
7E
4A
7E
28
38
ENDCHAR
STARTCHAR brokenbar
ENCODING 166
SWIDTH 258 0
DWIDTH 4 0
BBX 3 12 0 -1
BITMAP
E0
A0
60
A0
A0
60
40
A0
A0
E0
A0
E0
ENDCHAR
STARTCHAR section
ENCODING 167
SWIDTH 474 0
DWIDTH 7 0
BBX 6 10 0 0
BITMAP
7C
D4
B8
AC
54
B4
6C
64
9C
FC
ENDCHAR
STARTCHAR dieresis
ENCODING 168
SWIDTH 351 0
DWIDTH 5 0
BBX 5 3 0 10
BITMAP
D0
E8
50
ENDCHAR
STARTCHAR copyright
ENCODING 169
SWIDTH 719 0
DWIDTH 10 0
BBX 10 10 0 0
BITMAP
7F80
7740
A940
77C0
B940
B940
FFC0
A540
BFC0
7F80
ENDCHAR
STARTCHAR ordfeminine
ENCODING 170
SWIDTH 455 0
DWIDTH 6 0
BBX 7 10 0 0
BITMAP
38
28
54
5C
F4
94
EA
3C
44
7C
ENDCHAR
STARTCHAR guillemotleft
ENCODING 171
SWIDTH 689 0
DWIDTH 10 0
BBX 9 6 0 2
BITMAP
3980
4A80
9500
F700
4A80
3980
ENDCHAR
STARTCHAR logicalnot
ENCODING 172
SWIDTH 591 0
DWIDTH 8 0
BBX 8 6 0 0
BITMAP
7E
8D
7D
05
05
02
ENDCHAR
STARTCHAR uni00AD
ENCODING 173
SWIDTH 465 0
DWIDTH 7 0
BBX 6 3 0 3
BITMAP
FC
94
7C
ENDCHAR
STARTCHAR registered
ENCODING 174
SWIDTH 719 0
DWIDTH 10 0
BBX 10 10 0 0
BITMAP
7F80
7740
A940
77C0
BF40
B940
F9C0
A140
BFC0
7F80
ENDCHAR
STARTCHAR macron
ENCODING 175
SWIDTH 263 0
DWIDTH 4 0
BBX 4 1 0 11
BITMAP
F0
ENDCHAR
STARTCHAR degree
ENCODING 176
SWIDTH 333 0
DWIDTH 5 0
BBX 4 4 0 5
BITMAP
70
F0
90
F0
ENDCHAR
STARTCHAR plusminus
ENCODING 177
SWIDTH 464 0
DWIDTH 7 0
BBX 6 10 0 -2
BITMAP
10
28
7C
94
7C
28
10
FC
94
7C
ENDCHAR
STARTCHAR twosuperior
ENCODING 178
SWIDTH 324 0
DWIDTH 5 0
BBX 4 6 0 4
BITMAP
70
90
70
60
B0
70
ENDCHAR
STARTCHAR threesuperior
ENCODING 179
SWIDTH 332 0
DWIDTH 5 0
BBX 4 6 0 4
BITMAP
70
90
70
70
B0
E0
ENDCHAR
STARTCHAR acute
ENCODING 180
SWIDTH 202 0
DWIDTH 3 0
BBX 3 4 0 10
BITMAP
40
60
C0
40
ENDCHAR
STARTCHAR mu
ENCODING 181
SWIDTH 582 0
DWIDTH 8 0
BBX 8 12 0 -2
BITMAP
26
55
56
56
A5
65
67
D6
A9
BF
A0
60
ENDCHAR
STARTCHAR paragraph
ENCODING 182
SWIDTH 556 0
DWIDTH 8 0
BBX 7 10 0 0
BITMAP
1E
62
9E
A6
DA
2A
16
0A
0A
0E
ENDCHAR
STARTCHAR periodcentered
ENCODING 183
SWIDTH 215 0
DWIDTH 3 0
BBX 3 2 0 4
BITMAP
E0
E0
ENDCHAR
STARTCHAR cedilla
ENCODING 184
SWIDTH 237 0
DWIDTH 3 0
BBX 3 4 0 -3
BITMAP
60
60
E0
C0
ENDCHAR
STARTCHAR onesuperior
ENCODING 185
SWIDTH 286 0
DWIDTH 4 0
BBX 4 6 0 4
BITMAP
20
D0
F0
50
50
20
ENDCHAR
STARTCHAR ordmasculine
ENCODING 186
SWIDTH 476 0
DWIDTH 7 0
BBX 6 10 0 0
BITMAP
7C
94
FC
AC
AC
B4
C4
38
44
7C
ENDCHAR
STARTCHAR guillemotright
ENCODING 187
SWIDTH 689 0
DWIDTH 10 0
BBX 9 6 0 2
BITMAP
E600
9580
6A80
7B80
9480
E700
ENDCHAR
STARTCHAR onequarter
ENCODING 188
SWIDTH 790 0
DWIDTH 11 0
BBX 11 10 0 0
BITMAP
2000
5600
B600
7E00
3A00
3CC0
0D60
16A0
1720
08E0
ENDCHAR
STARTCHAR onehalf
ENCODING 189
SWIDTH 771 0
DWIDTH 11 0
BBX 10 10 0 0
BITMAP
2000
5600
B600
7E00
3B00
3EC0
0DC0
1540
1640
09C0
ENDCHAR
STARTCHAR threequarters
ENCODING 190
SWIDTH 817 0
DWIDTH 11 0
BBX 11 10 0 0
BITMAP
7200
9500
6D00
6E00
AA40
FAA0
0D60
0AA0
0DA0
0C60
ENDCHAR
STARTCHAR questiondown
ENCODING 191
SWIDTH 455 0
DWIDTH 6 0
BBX 6 10 0 0
BITMAP
18
14
08
1C
18
28
D0
B8
E4
1C
ENDCHAR
STARTCHAR Agrave
ENCODING 192
SWIDTH 507 0
DWIDTH 7 0
BBX 7 14 0 0
BITMAP
10
30
30
00
30
28
54
74
5C
56
AA
AE
BA
EE
ENDCHAR
STARTCHAR Aacute
ENCODING 193
SWIDTH 507 0
DWIDTH 7 0
BBX 7 14 0 0
BITMAP
08
0C
18
08
30
28
54
74
5C
56
AA
AE
BA
EE
ENDCHAR
STARTCHAR Acircumflex
ENCODING 194
SWIDTH 507 0
DWIDTH 7 0
BBX 7 14 0 0
BITMAP
38
38
54
28
30
28
54
74
5C
56
AA
AE
BA
EE
ENDCHAR
STARTCHAR Atilde
ENCODING 195
SWIDTH 507 0
DWIDTH 7 0
BBX 7 14 0 0
BITMAP
36
5A
74
08
30
28
54
74
5C
56
AA
AE
BA
EE
ENDCHAR
STARTCHAR Adieresis
ENCODING 196
SWIDTH 507 0
DWIDTH 7 0
BBX 7 13 0 0
BITMAP
2C
54
28
30
28
54
74
5C
56
AA
AE
BA
EE
ENDCHAR
STARTCHAR Aring
ENCODING 197
SWIDTH 507 0
DWIDTH 7 0
BBX 7 14 0 0
BITMAP
10
28
54
6C
38
28
54
74
5C
56
AA
AE
BA
EE
ENDCHAR
STARTCHAR AE
ENCODING 198
SWIDTH 797 0
DWIDTH 11 0
BBX 11 10 0 0
BITMAP
0FE0
15A0
15E0
3700
29C0
5540
7E80
BDE0
A520
C7E0
ENDCHAR
STARTCHAR Ccedilla
ENCODING 199
SWIDTH 515 0
DWIDTH 7 0
BBX 7 13 0 -3
BITMAP
7C
4A
7E
60
50
A0
E0
BE
AA
EE
54
34
38
ENDCHAR
STARTCHAR Egrave
ENCODING 200
SWIDTH 490 0
DWIDTH 7 0
BBX 7 14 0 0
BITMAP
10
30
28
10
7E
AA
9E
60
BC
A4
F8
9C
B2
FC
ENDCHAR
STARTCHAR Eacute
ENCODING 201
SWIDTH 490 0
DWIDTH 7 0
BBX 7 14 0 0
BITMAP
08
14
18
10
7E
AA
9E
60
BC
A4
F8
9C
B2
FC
ENDCHAR
STARTCHAR Ecircumflex
ENCODING 202
SWIDTH 490 0
DWIDTH 7 0
BBX 7 14 0 0
BITMAP
38
38
54
28
7E
AA
9E
60
BC
A4
F8
9C
B2
FC
ENDCHAR
STARTCHAR Edieresis
ENCODING 203
SWIDTH 490 0
DWIDTH 7 0
BBX 7 13 0 0
BITMAP
2C
54
28
7E
AA
9E
60
BC
A4
F8
9C
B2
FC
ENDCHAR
STARTCHAR Igrave
ENCODING 204
SWIDTH 266 0
DWIDTH 4 0
BBX 3 14 0 0
BITMAP
40
C0
A0
40
60
A0
A0
60
A0
A0
E0
A0
A0
E0
ENDCHAR
STARTCHAR Iacute
ENCODING 205
SWIDTH 266 0
DWIDTH 4 0
BBX 4 14 0 0
BITMAP
10
30
50
20
60
A0
A0
60
A0
A0
E0
A0
A0
E0
ENDCHAR
STARTCHAR Icircumflex
ENCODING 206
SWIDTH 266 0
DWIDTH 4 0
BBX 4 14 0 0
BITMAP
60
B0
F0
10
60
A0
A0
60
A0
A0
E0
A0
A0
E0
ENDCHAR
STARTCHAR Idieresis
ENCODING 207
SWIDTH 266 0
DWIDTH 4 0
BBX 5 13 -1 0
BITMAP
68
B8
40
30
50
50
30
50
50
70
50
50
70
ENDCHAR
STARTCHAR Eth
ENCODING 208
SWIDTH 669 0
DWIDTH 9 0
BBX 10 10 0 0
BITMAP
1C00
1200
1900
1E80
EA40
E9C0
1E80
2900
2A00
3C00
ENDCHAR
STARTCHAR Ntilde
ENCODING 209
SWIDTH 598 0
DWIDTH 8 0
BBX 8 14 0 0
BITMAP
1F
2E
5A
24
63
95
AD
7F
A5
95
7B
AB
A9
E7
ENDCHAR
STARTCHAR Ograve
ENCODING 210
SWIDTH 612 0
DWIDTH 9 0
BBX 8 14 0 0
BITMAP
08
18
14
08
7E
49
7D
67
55
A5
E3
BF
A9
FF
ENDCHAR
STARTCHAR Oacute
ENCODING 211
SWIDTH 612 0
DWIDTH 9 0
BBX 8 14 0 0
BITMAP
04
0A
0C
08
7E
49
7D
67
55
A5
E3
BF
A9
FF
ENDCHAR
STARTCHAR Ocircumflex
ENCODING 212
SWIDTH 612 0
DWIDTH 9 0
BBX 8 14 0 0
BITMAP
1C
1C
2A
14
7E
49
7D
67
55
A5
E3
BF
A9
FF
ENDCHAR
STARTCHAR Otilde
ENCODING 213
SWIDTH 612 0
DWIDTH 9 0
BBX 8 14 0 0
BITMAP
1B
2D
3A
04
7E
49
7D
67
55
A5
E3
BF
A9
FF
ENDCHAR
STARTCHAR Odieresis
ENCODING 214
SWIDTH 612 0
DWIDTH 9 0
BBX 8 13 0 0
BITMAP
34
3A
24
7E
49
7D
67
55
A5
E3
BF
A9
FF
ENDCHAR
STARTCHAR multiply
ENCODING 215
SWIDTH 421 0
DWIDTH 6 0
BBX 6 5 0 2
BITMAP
F8
94
58
A4
58
ENDCHAR
STARTCHAR Oslash
ENCODING 216
SWIDTH 612 0
DWIDTH 9 0
BBX 8 11 0 -1
BITMAP
7A
4D
79
6F
53
A5
FB
AF
D9
5F
20
ENDCHAR
STARTCHAR Ugrave
ENCODING 217
SWIDTH 583 0
DWIDTH 8 0
BBX 8 14 0 0
BITMAP
10
28
18
00
66
55
55
66
A5
A5
E7
BD
A9
7F
ENDCHAR
STARTCHAR Uacute
ENCODING 218
SWIDTH 583 0
DWIDTH 8 0
BBX 8 14 0 0
BITMAP
08
0C
14
08
66
55
55
66
A5
A5
E7
BD
A9
7F
ENDCHAR
STARTCHAR Ucircumflex
ENCODING 219
SWIDTH 583 0
DWIDTH 8 0
BBX 8 14 0 0
BITMAP
18
2C
3A
04
66
55
55
66
A5
A5
E7
BD
A9
7F
ENDCHAR
STARTCHAR Udieresis
ENCODING 220
SWIDTH 583 0
DWIDTH 8 0
BBX 8 13 0 0
BITMAP
34
3A
24
66
55
55
66
A5
A5
E7
BD
A9
7F
ENDCHAR
STARTCHAR Yacute
ENCODING 221
SWIDTH 484 0
DWIDTH 7 0
BBX 7 13 0 0
BITMAP
08
14
18
14
CA
AA
5C
54
24
38
28
50
30
ENDCHAR
STARTCHAR Thorn
ENCODING 222
SWIDTH 520 0
DWIDTH 7 0
BBX 7 10 0 0
BITMAP
60
A0
5C
4A
BE
AA
7C
A8
90
E0
ENDCHAR
STARTCHAR germandbls
ENCODING 223
SWIDTH 884 0
DWIDTH 12 0
BBX 12 10 0 0
BITMAP
7DF0
B5D0
BA60
5140
71C0
28A0
1850
55D0
B650
FBE0
ENDCHAR
STARTCHAR agrave
ENCODING 224
SWIDTH 507 0
DWIDTH 7 0
BBX 7 14 0 0
BITMAP
10
30
30
00
30
28
54
74
5C
56
AA
AE
BA
EE
ENDCHAR
STARTCHAR aacute
ENCODING 225
SWIDTH 507 0
DWIDTH 7 0
BBX 7 14 0 0
BITMAP
08
0C
18
08
30
28
54
74
5C
56
AA
AE
BA
EE
ENDCHAR
STARTCHAR acircumflex
ENCODING 226
SWIDTH 507 0
DWIDTH 7 0
BBX 7 14 0 0
BITMAP
38
38
54
28
30
28
54
74
5C
56
AA
AE
BA
EE
ENDCHAR
STARTCHAR atilde
ENCODING 227
SWIDTH 507 0
DWIDTH 7 0
BBX 7 14 0 0
BITMAP
36
5A
74
08
30
28
54
74
5C
56
AA
AE
BA
EE
ENDCHAR
STARTCHAR adieresis
ENCODING 228
SWIDTH 507 0
DWIDTH 7 0
BBX 7 13 0 0
BITMAP
2C
54
28
30
28
54
74
5C
56
AA
AE
BA
EE
ENDCHAR
STARTCHAR aring
ENCODING 229
SWIDTH 507 0
DWIDTH 7 0
BBX 7 14 0 0
BITMAP
10
28
54
6C
38
28
54
74
5C
56
AA
AE
BA
EE
ENDCHAR
STARTCHAR ae
ENCODING 230
SWIDTH 797 0
DWIDTH 11 0
BBX 11 10 0 0
BITMAP
0FE0
15A0
15E0
3700
29C0
5540
7E80
BDE0
A520
C7E0
ENDCHAR
STARTCHAR ccedilla
ENCODING 231
SWIDTH 515 0
DWIDTH 7 0
BBX 7 13 0 -3
BITMAP
7C
4A
7E
60
50
A0
E0
BE
AA
EE
54
34
38
ENDCHAR
STARTCHAR egrave
ENCODING 232
SWIDTH 490 0
DWIDTH 7 0
BBX 7 14 0 0
BITMAP
10
30
28
10
7E
AA
9E
60
BC
A4
F8
9C
B2
FC
ENDCHAR
STARTCHAR eacute
ENCODING 233
SWIDTH 490 0
DWIDTH 7 0
BBX 7 14 0 0
BITMAP
08
14
18
10
7E
AA
9E
60
BC
A4
F8
9C
B2
FC
ENDCHAR
STARTCHAR ecircumflex
ENCODING 234
SWIDTH 490 0
DWIDTH 7 0
BBX 7 14 0 0
BITMAP
38
38
54
28
7E
AA
9E
60
BC
A4
F8
9C
B2
FC
ENDCHAR
STARTCHAR edieresis
ENCODING 235
SWIDTH 490 0
DWIDTH 7 0
BBX 7 13 0 0
BITMAP
2C
54
28
7E
AA
9E
60
BC
A4
F8
9C
B2
FC
ENDCHAR
STARTCHAR igrave
ENCODING 236
SWIDTH 266 0
DWIDTH 4 0
BBX 3 14 0 0
BITMAP
40
C0
A0
40
60
A0
A0
60
A0
A0
E0
A0
A0
E0
ENDCHAR
STARTCHAR iacute
ENCODING 237
SWIDTH 266 0
DWIDTH 4 0
BBX 4 14 0 0
BITMAP
10
30
50
20
60
A0
A0
60
A0
A0
E0
A0
A0
E0
ENDCHAR
STARTCHAR icircumflex
ENCODING 238
SWIDTH 266 0
DWIDTH 4 0
BBX 4 14 0 0
BITMAP
60
B0
F0
10
60
A0
A0
60
A0
A0
E0
A0
A0
E0
ENDCHAR
STARTCHAR idieresis
ENCODING 239
SWIDTH 266 0
DWIDTH 4 0
BBX 5 13 -1 0
BITMAP
68
B8
40
30
50
50
30
50
50
70
50
50
70
ENDCHAR
STARTCHAR eth
ENCODING 240
SWIDTH 669 0
DWIDTH 9 0
BBX 10 10 0 0
BITMAP
1C00
1200
1900
1E80
EA40
E9C0
1E80
2900
2A00
3C00
ENDCHAR
STARTCHAR ntilde
ENCODING 241
SWIDTH 598 0
DWIDTH 8 0
BBX 8 14 0 0
BITMAP
1F
2E
5A
24
63
95
AD
7F
A5
95
7B
AB
A9
E7
ENDCHAR
STARTCHAR ograve
ENCODING 242
SWIDTH 612 0
DWIDTH 9 0
BBX 8 14 0 0
BITMAP
08
18
14
08
7E
49
7D
67
55
A5
E3
BF
A9
FF
ENDCHAR
STARTCHAR oacute
ENCODING 243
SWIDTH 612 0
DWIDTH 9 0
BBX 8 14 0 0
BITMAP
04
0A
0C
08
7E
49
7D
67
55
A5
E3
BF
A9
FF
ENDCHAR
STARTCHAR ocircumflex
ENCODING 244
SWIDTH 612 0
DWIDTH 9 0
BBX 8 14 0 0
BITMAP
1C
1C
2A
14
7E
49
7D
67
55
A5
E3
BF
A9
FF
ENDCHAR
STARTCHAR otilde
ENCODING 245
SWIDTH 612 0
DWIDTH 9 0
BBX 8 14 0 0
BITMAP
1B
2D
3A
04
7E
49
7D
67
55
A5
E3
BF
A9
FF
ENDCHAR
STARTCHAR odieresis
ENCODING 246
SWIDTH 612 0
DWIDTH 9 0
BBX 8 13 0 0
BITMAP
34
3A
24
7E
49
7D
67
55
A5
E3
BF
A9
FF
ENDCHAR
STARTCHAR divide
ENCODING 247
SWIDTH 457 0
DWIDTH 6 0
BBX 6 8 0 1
BITMAP
10
28
10
FC
94
7C
28
38
ENDCHAR
STARTCHAR oslash
ENCODING 248
SWIDTH 612 0
DWIDTH 9 0
BBX 8 11 0 -1
BITMAP
7A
4D
79
6F
53
A5
FB
AF
D9
5F
20
ENDCHAR
STARTCHAR ugrave
ENCODING 249
SWIDTH 583 0
DWIDTH 8 0
BBX 8 14 0 0
BITMAP
10
28
18
00
66
55
55
66
A5
A5
E7
BD
A9
7F
ENDCHAR
STARTCHAR uacute
ENCODING 250
SWIDTH 583 0
DWIDTH 8 0
BBX 8 14 0 0
BITMAP
08
0C
14
08
66
55
55
66
A5
A5
E7
BD
A9
7F
ENDCHAR
STARTCHAR ucircumflex
ENCODING 251
SWIDTH 583 0
DWIDTH 8 0
BBX 8 14 0 0
BITMAP
18
2C
3A
04
66
55
55
66
A5
A5
E7
BD
A9
7F
ENDCHAR
STARTCHAR udieresis
ENCODING 252
SWIDTH 583 0
DWIDTH 8 0
BBX 8 13 0 0
BITMAP
34
3A
24
66
55
55
66
A5
A5
E7
BD
A9
7F
ENDCHAR
STARTCHAR yacute
ENCODING 253
SWIDTH 484 0
DWIDTH 7 0
BBX 7 13 0 0
BITMAP
08
14
18
14
CA
AA
5C
54
24
38
28
50
30
ENDCHAR
STARTCHAR thorn
ENCODING 254
SWIDTH 520 0
DWIDTH 7 0
BBX 7 10 0 0
BITMAP
60
A0
5C
4A
BE
AA
7C
A8
90
E0
ENDCHAR
STARTCHAR ydieresis
ENCODING 255
SWIDTH 484 0
DWIDTH 7 0
BBX 7 12 0 0
BITMAP
68
74
2C
CA
AA
5C
54
24
38
28
50
30
ENDCHAR
STARTCHAR Amacron
ENCODING 256
SWIDTH 507 0
DWIDTH 7 0
BBX 7 12 0 0
BITMAP
7C
38
30
28
54
74
5C
56
AA
AE
BA
EE
ENDCHAR
STARTCHAR amacron
ENCODING 257
SWIDTH 507 0
DWIDTH 7 0
BBX 7 12 0 0
BITMAP
7C
38
30
28
54
74
5C
56
AA
AE
BA
EE
ENDCHAR
STARTCHAR Abreve
ENCODING 258
SWIDTH 507 0
DWIDTH 7 0
BBX 7 14 0 0
BITMAP
6C
6C
58
28
30
28
54
74
5C
56
AA
AE
BA
EE
ENDCHAR
STARTCHAR abreve
ENCODING 259
SWIDTH 507 0
DWIDTH 7 0
BBX 7 14 0 0
BITMAP
6C
6C
58
28
30
28
54
74
5C
56
AA
AE
BA
EE
ENDCHAR
STARTCHAR Aogonek
ENCODING 260
SWIDTH 507 0
DWIDTH 7 0
BBX 8 13 0 -3
BITMAP
30
28
54
74
5C
56
A9
AE
BA
EE
0A
05
02
ENDCHAR
STARTCHAR aogonek
ENCODING 261
SWIDTH 507 0
DWIDTH 7 0
BBX 8 13 0 -3
BITMAP
30
28
54
74
5C
56
A9
AE
BA
EE
0A
05
02
ENDCHAR
STARTCHAR Cacute
ENCODING 262
SWIDTH 515 0
DWIDTH 7 0
BBX 7 14 0 0
BITMAP
04
0A
14
08
7C
4A
7E
60
50
A0
E0
BE
AA
FE
ENDCHAR
STARTCHAR cacute
ENCODING 263
SWIDTH 515 0
DWIDTH 7 0
BBX 7 14 0 0
BITMAP
04
0A
14
08
7C
4A
7E
60
50
A0
E0
BE
AA
FE
ENDCHAR
STARTCHAR Ccircumflex
ENCODING 264
SWIDTH 515 0
DWIDTH 7 0
BBX 7 14 0 0
BITMAP
18
1C
3A
04
7C
4A
7E
60
50
A0
E0
BE
AA
FE
ENDCHAR
STARTCHAR ccircumflex
ENCODING 265
SWIDTH 515 0
DWIDTH 7 0
BBX 7 14 0 0
BITMAP
18
1C
3A
04
7C
4A
7E
60
50
A0
E0
BE
AA
FE
ENDCHAR
STARTCHAR Cdotaccent
ENCODING 266
SWIDTH 515 0
DWIDTH 7 0
BBX 7 13 0 0
BITMAP
08
14
08
7C
4A
7E
60
50
A0
E0
BE
AA
FE
ENDCHAR
STARTCHAR cdotaccent
ENCODING 267
SWIDTH 515 0
DWIDTH 7 0
BBX 7 13 0 0
BITMAP
08
14
08
7C
4A
7E
60
50
A0
E0
BE
AA
FE
ENDCHAR
STARTCHAR Ccaron
ENCODING 268
SWIDTH 515 0
DWIDTH 7 0
BBX 7 14 0 0
BITMAP
3E
2C
18
00
7C
4A
7E
60
50
A0
E0
BE
AA
FE
ENDCHAR
STARTCHAR ccaron
ENCODING 269
SWIDTH 515 0
DWIDTH 7 0
BBX 7 14 0 0
BITMAP
3E
2C
18
00
7C
4A
7E
60
50
A0
E0
BE
AA
FE
ENDCHAR
STARTCHAR Dcaron
ENCODING 270
SWIDTH 520 0
DWIDTH 7 0
BBX 7 14 0 0
BITMAP
7C
34
28
10
70
48
A4
7A
AA
A6
FA
A4
A8
F0
ENDCHAR
STARTCHAR dcaron
ENCODING 271
SWIDTH 520 0
DWIDTH 7 0
BBX 7 14 0 0
BITMAP
7C
34
28
10
70
48
A4
7A
AA
A6
FA
A4
A8
F0
ENDCHAR
STARTCHAR Dcroat
ENCODING 272
SWIDTH 669 0
DWIDTH 9 0
BBX 10 10 0 0
BITMAP
1C00
1200
1900
1E80
EA40
E9C0
1E80
2900
2A00
3C00
ENDCHAR
STARTCHAR dcroat
ENCODING 273
SWIDTH 669 0
DWIDTH 9 0
BBX 10 10 0 0
BITMAP
1C00
1200
1900
1E80
EA40
E9C0
1E80
2900
2A00
3C00
ENDCHAR
STARTCHAR Emacron
ENCODING 274
SWIDTH 490 0
DWIDTH 7 0
BBX 7 12 0 0
BITMAP
7C
38
7E
AA
9E
60
BC
A4
F8
9C
B2
FC
ENDCHAR
STARTCHAR emacron
ENCODING 275
SWIDTH 490 0
DWIDTH 7 0
BBX 7 12 0 0
BITMAP
7C
38
7E
AA
9E
60
BC
A4
F8
9C
B2
FC
ENDCHAR
STARTCHAR Ebreve
ENCODING 276
SWIDTH 490 0
DWIDTH 7 0
BBX 7 14 0 0
BITMAP
6C
5C
24
18
7E
AA
9E
60
BC
A4
F8
9C
B2
FC
ENDCHAR
STARTCHAR ebreve
ENCODING 277
SWIDTH 490 0
DWIDTH 7 0
BBX 7 14 0 0
BITMAP
6C
5C
24
18
7E
AA
9E
60
BC
A4
F8
9C
B2
FC
ENDCHAR
STARTCHAR Edotaccent
ENCODING 278
SWIDTH 490 0
DWIDTH 7 0
BBX 7 13 0 0
BITMAP
10
28
10
7E
AA
9E
60
BC
A4
F8
9C
B2
FC
ENDCHAR
STARTCHAR edotaccent
ENCODING 279
SWIDTH 490 0
DWIDTH 7 0
BBX 7 13 0 0
BITMAP
10
28
10
7E
AA
9E
60
BC
A4
F8
9C
B2
FC
ENDCHAR
STARTCHAR Eogonek
ENCODING 280
SWIDTH 490 0
DWIDTH 7 0
BBX 7 13 0 -3
BITMAP
7E
AA
9E
60
BC
A4
F8
9C
B2
FC
14
0A
04
ENDCHAR
STARTCHAR eogonek
ENCODING 281
SWIDTH 490 0
DWIDTH 7 0
BBX 7 13 0 -3
BITMAP
7E
AA
9E
60
BC
A4
F8
9C
B2
FC
14
0A
04
ENDCHAR
STARTCHAR Ecaron
ENCODING 282
SWIDTH 490 0
DWIDTH 7 0
BBX 7 14 0 0
BITMAP
7C
34
28
10
7E
AA
9E
60
BC
A4
F8
9C
B2
FC
ENDCHAR
STARTCHAR ecaron
ENCODING 283
SWIDTH 490 0
DWIDTH 7 0
BBX 7 14 0 0
BITMAP
7C
34
28
10
7E
AA
9E
60
BC
A4
F8
9C
B2
FC
ENDCHAR
STARTCHAR Gcircumflex
ENCODING 284
SWIDTH 557 0
DWIDTH 8 0
BBX 8 14 0 0
BITMAP
18
2C
3A
04
7C
4A
7E
60
56
A5
E7
B9
AD
FF
ENDCHAR
STARTCHAR gcircumflex
ENCODING 285
SWIDTH 557 0
DWIDTH 8 0
BBX 8 14 0 0
BITMAP
18
2C
3A
04
7C
4A
7E
60
56
A5
E7
B9
AD
FF
ENDCHAR
STARTCHAR Gbreve
ENCODING 286
SWIDTH 557 0
DWIDTH 8 0
BBX 8 14 0 0
BITMAP
34
3A
34
0C
7C
4A
7E
60
56
A5
E7
B9
AD
FF
ENDCHAR
STARTCHAR gbreve
ENCODING 287
SWIDTH 557 0
DWIDTH 8 0
BBX 8 14 0 0
BITMAP
34
3A
34
0C
7C
4A
7E
60
56
A5
E7
B9
AD
FF
ENDCHAR
STARTCHAR Gdotaccent
ENCODING 288
SWIDTH 557 0
DWIDTH 8 0
BBX 8 13 0 0
BITMAP
08
14
08
7C
4A
7E
60
56
A5
E7
B9
AD
FF
ENDCHAR
STARTCHAR gdotaccent
ENCODING 289
SWIDTH 557 0
DWIDTH 8 0
BBX 8 13 0 0
BITMAP
08
14
08
7C
4A
7E
60
56
A5
E7
B9
AD
FF
ENDCHAR
STARTCHAR Gcommaaccent
ENCODING 290
SWIDTH 557 0
DWIDTH 8 0
BBX 8 14 0 -4
BITMAP
7C
4A
7E
60
56
A5
E7
B9
AD
EF
50
18
30
10
ENDCHAR
STARTCHAR gcommaaccent
ENCODING 291
SWIDTH 557 0
DWIDTH 8 0
BBX 8 14 0 -4
BITMAP
7C
4A
7E
60
56
A5
E7
B9
AD
EF
50
18
30
10
ENDCHAR
STARTCHAR Hcircumflex
ENCODING 292
SWIDTH 611 0
DWIDTH 9 0
BBX 9 14 0 0
BITMAP
1800
2C00
2A00
1400
6700
A500
A500
6700
A500
A680
FC80
BF00
A500
E700
ENDCHAR
STARTCHAR hcircumflex
ENCODING 293
SWIDTH 611 0
DWIDTH 9 0
BBX 9 14 0 0
BITMAP
1800
2C00
2A00
1400
6700
A500
A500
6700
A500
A680
FC80
BF00
A500
E700
ENDCHAR
STARTCHAR Hbar
ENCODING 294
SWIDTH 706 0
DWIDTH 10 0
BBX 10 10 0 0
BITMAP
3380
5280
DF40
F740
5A80
5740
7A40
5F80
5280
7380
ENDCHAR
STARTCHAR hbar
ENCODING 295
SWIDTH 706 0
DWIDTH 10 0
BBX 10 10 0 0
BITMAP
3380
5280
DF40
F740
5A80
5740
7A40
5F80
5280
7380
ENDCHAR
STARTCHAR Itilde
ENCODING 296
SWIDTH 266 0
DWIDTH 4 0
BBX 6 14 -1 0
BITMAP
7C
74
E8
10
30
50
50
30
50
50
70
50
50
70
ENDCHAR
STARTCHAR itilde
ENCODING 297
SWIDTH 266 0
DWIDTH 4 0
BBX 6 14 -1 0
BITMAP
7C
74
E8
10
30
50
50
30
50
50
70
50
50
70
ENDCHAR
STARTCHAR Imacron
ENCODING 298
SWIDTH 266 0
DWIDTH 4 0
BBX 4 12 0 0
BITMAP
F0
60
60
A0
A0
60
A0
A0
E0
A0
A0
E0
ENDCHAR
STARTCHAR imacron
ENCODING 299
SWIDTH 266 0
DWIDTH 4 0
BBX 4 12 0 0
BITMAP
F0
60
60
A0
A0
60
A0
A0
E0
A0
A0
E0
ENDCHAR
STARTCHAR Ibreve
ENCODING 300
SWIDTH 266 0
DWIDTH 4 0
BBX 4 14 0 0
BITMAP
D0
F0
D0
30
60
A0
A0
60
A0
A0
E0
A0
A0
E0
ENDCHAR
STARTCHAR ibreve
ENCODING 301
SWIDTH 266 0
DWIDTH 4 0
BBX 4 14 0 0
BITMAP
D0
F0
D0
30
60
A0
A0
60
A0
A0
E0
A0
A0
E0
ENDCHAR
STARTCHAR Iogonek
ENCODING 302
SWIDTH 266 0
DWIDTH 4 0
BBX 3 13 0 -3
BITMAP
60
A0
A0
60
A0
A0
E0
A0
A0
E0
A0
E0
60
ENDCHAR
STARTCHAR iogonek
ENCODING 303
SWIDTH 266 0
DWIDTH 4 0
BBX 3 13 0 -3
BITMAP
60
A0
A0
60
A0
A0
E0
A0
A0
E0
A0
E0
60
ENDCHAR
STARTCHAR Idotaccent
ENCODING 304
SWIDTH 266 0
DWIDTH 4 0
BBX 3 13 0 0
BITMAP
60
60
40
60
A0
A0
60
A0
A0
E0
A0
A0
E0
ENDCHAR
STARTCHAR dotlessi
ENCODING 305
SWIDTH 266 0
DWIDTH 4 0
BBX 3 10 0 0
BITMAP
60
A0
A0
60
A0
A0
E0
A0
A0
E0
ENDCHAR
STARTCHAR IJ
ENCODING 306
SWIDTH 750 0
DWIDTH 11 0
BBX 10 11 0 -1
BITMAP
60C0
A140
A140
61C0
A140
AD40
F3C0
AD40
A4C0
E2C0
0100
ENDCHAR
STARTCHAR ij
ENCODING 307
SWIDTH 749 0
DWIDTH 10 0
BBX 10 11 0 -1
BITMAP
60C0
A140
A140
61C0
A140
AD40
F3C0
AD40
A4C0
E2C0
0100
ENDCHAR
STARTCHAR Jcircumflex
ENCODING 308
SWIDTH 484 0
DWIDTH 7 0
BBX 7 15 0 -1
BITMAP
0C
14
1E
02
0C
0A
0C
0C
0C
CC
AC
54
4C
2C
10
ENDCHAR
STARTCHAR jcircumflex
ENCODING 309
SWIDTH 482 0
DWIDTH 7 0
BBX 7 15 0 -1
BITMAP
0C
14
1E
02
0C
0A
0C
0C
0C
CC
AC
54
4C
2C
10
ENDCHAR
STARTCHAR Kcommaaccent
ENCODING 310
SWIDTH 541 0
DWIDTH 8 0
BBX 8 14 0 -4
BITMAP
66
A5
A9
76
A4
AC
F6
AA
AA
EE
10
18
30
20
ENDCHAR
STARTCHAR kcommaaccent
ENCODING 311
SWIDTH 541 0
DWIDTH 8 0
BBX 8 14 0 -4
BITMAP
66
A5
A9
76
A4
AC
F6
AA
AA
EE
10
18
30
20
ENDCHAR
STARTCHAR kgreenlandic
ENCODING 312
SWIDTH 541 0
DWIDTH 8 0
BBX 8 10 0 0
BITMAP
66
A5
A9
76
A4
AC
F6
AA
AA
EE
ENDCHAR
STARTCHAR Lacute
ENCODING 313
SWIDTH 467 0
DWIDTH 7 0
BBX 7 14 0 0
BITMAP
10
28
30
20
60
A0
A0
60
A0
A0
E0
9E
92
FE
ENDCHAR
STARTCHAR lacute
ENCODING 314
SWIDTH 467 0
DWIDTH 7 0
BBX 7 14 0 0
BITMAP
10
28
30
20
60
A0
A0
60
A0
A0
E0
9E
92
FE
ENDCHAR
STARTCHAR Lcommaaccent
ENCODING 315
SWIDTH 467 0
DWIDTH 7 0
BBX 7 14 0 -4
BITMAP
60
A0
A0
60
A0
A0
E0
9E
92
EE
10
28
50
20
ENDCHAR
STARTCHAR lcommaaccent
ENCODING 316
SWIDTH 467 0
DWIDTH 7 0
BBX 7 14 0 -4
BITMAP
60
A0
A0
60
A0
A0
E0
9E
92
EE
10
28
50
20
ENDCHAR
STARTCHAR Lcaron
ENCODING 317
SWIDTH 467 0
DWIDTH 7 0
BBX 7 11 0 0
BITMAP
04
6C
B4
A8
60
A0
A0
E0
9E
92
FE
ENDCHAR
STARTCHAR lcaron
ENCODING 318
SWIDTH 467 0
DWIDTH 7 0
BBX 7 11 0 0
BITMAP
04
6C
B4
A8
60
A0
A0
E0
9E
92
FE
ENDCHAR
STARTCHAR Ldot
ENCODING 319
SWIDTH 611 0
DWIDTH 9 0
BBX 8 10 0 0
BITMAP
60
A0
A0
60
A3
A3
E0
9E
92
FE
ENDCHAR
STARTCHAR ldotaccent
ENCODING 320
SWIDTH 611 0
DWIDTH 9 0
BBX 8 10 0 0
BITMAP
60
A0
A0
60
A3
A3
E0
9E
92
FE
ENDCHAR
STARTCHAR Lslash
ENCODING 321
SWIDTH 505 0
DWIDTH 7 0
BBX 7 10 0 0
BITMAP
70
50
50
70
D8
D8
F0
5E
52
7E
ENDCHAR
STARTCHAR lslash
ENCODING 322
SWIDTH 505 0
DWIDTH 7 0
BBX 7 10 0 0
BITMAP
70
50
50
70
D8
D8
F0
5E
52
7E
ENDCHAR
STARTCHAR Nacute
ENCODING 323
SWIDTH 598 0
DWIDTH 8 0
BBX 8 13 0 0
BITMAP
04
0A
14
6B
95
AD
7F
A5
95
7B
AB
A9
E7
ENDCHAR
STARTCHAR nacute
ENCODING 324
SWIDTH 598 0
DWIDTH 8 0
BBX 8 13 0 0
BITMAP
04
0A
14
6B
95
AD
7F
A5
95
7B
AB
A9
E7
ENDCHAR
STARTCHAR Ncommaaccent
ENCODING 325
SWIDTH 598 0
DWIDTH 8 0
BBX 8 14 0 -4
BITMAP
63
95
AD
7F
A5
95
7B
AB
A9
E7
10
18
28
10
ENDCHAR
STARTCHAR ncommaaccent
ENCODING 326
SWIDTH 598 0
DWIDTH 8 0
BBX 8 14 0 -4
BITMAP
63
95
AD
7F
A5
95
7B
AB
A9
E7
10
18
28
10
ENDCHAR
STARTCHAR Ncaron
ENCODING 327
SWIDTH 598 0
DWIDTH 8 0
BBX 8 14 0 0
BITMAP
3E
2C
18
00
63
95
AD
7F
A5
95
7B
AB
A9
E7
ENDCHAR
STARTCHAR ncaron
ENCODING 328
SWIDTH 598 0
DWIDTH 8 0
BBX 8 14 0 0
BITMAP
3E
2C
18
00
63
95
AD
7F
A5
95
7B
AB
A9
E7
ENDCHAR
STARTCHAR napostrophe
ENCODING 329
SWIDTH 807 0
DWIDTH 11 0
BBX 11 10 0 0
BITMAP
4CE0
B2A0
D5A0
1BE0
14A0
14A0
0B60
1560
1520
1CE0
ENDCHAR
STARTCHAR Eng
ENCODING 330
SWIDTH 595 0
DWIDTH 8 0
BBX 8 14 0 -4
BITMAP
62
95
AD
7D
A7
95
FD
AB
A9
E7
07
79
5E
20
ENDCHAR
STARTCHAR eng
ENCODING 331
SWIDTH 595 0
DWIDTH 8 0
BBX 8 14 0 -4
BITMAP
62
95
AD
7D
A7
95
FD
AB
A9
E7
07
79
5E
20
ENDCHAR
STARTCHAR Omacron
ENCODING 332
SWIDTH 612 0
DWIDTH 9 0
BBX 8 12 0 0
BITMAP
3E
1C
7E
49
7D
67
55
A5
E3
BF
A9
FF
ENDCHAR
STARTCHAR omacron
ENCODING 333
SWIDTH 612 0
DWIDTH 9 0
BBX 8 12 0 0
BITMAP
3E
1C
7E
49
7D
67
55
A5
E3
BF
A9
FF
ENDCHAR
STARTCHAR Obreve
ENCODING 334
SWIDTH 612 0
DWIDTH 9 0
BBX 8 14 0 0
BITMAP
36
34
3C
0C
7E
49
7D
67
55
A5
E3
BF
A9
FF
ENDCHAR
STARTCHAR obreve
ENCODING 335
SWIDTH 612 0
DWIDTH 9 0
BBX 8 14 0 0
BITMAP
36
34
3C
0C
7E
49
7D
67
55
A5
E3
BF
A9
FF
ENDCHAR
STARTCHAR Ohungarumlaut
ENCODING 336
SWIDTH 612 0
DWIDTH 9 0
BBX 8 14 0 0
BITMAP
0A
15
1E
12
7E
49
7D
67
55
A5
E3
BF
A9
FF
ENDCHAR
STARTCHAR ohungarumlaut
ENCODING 337
SWIDTH 612 0
DWIDTH 9 0
BBX 8 14 0 0
BITMAP
0A
15
1E
12
7E
49
7D
67
55
A5
E3
BF
A9
FF
ENDCHAR
STARTCHAR OE
ENCODING 338
SWIDTH 831 0
DWIDTH 12 0
BBX 12 10 0 0
BITMAP
7FE0
4B90
7DE0
6700
55C0
A520
E7C0
BFE0
A990
FFE0
ENDCHAR
STARTCHAR oe
ENCODING 339
SWIDTH 831 0
DWIDTH 12 0
BBX 12 10 0 0
BITMAP
7FE0
4B90
7DE0
6700
55C0
A520
E7C0
BFE0
A990
FFE0
ENDCHAR
STARTCHAR Racute
ENCODING 340
SWIDTH 532 0
DWIDTH 7 0
BBX 8 14 0 0
BITMAP
04
0A
14
08
78
46
B9
66
9A
94
74
AA
A9
E7
ENDCHAR
STARTCHAR racute
ENCODING 341
SWIDTH 532 0
DWIDTH 7 0
BBX 8 14 0 0
BITMAP
04
0A
14
08
78
46
B9
66
9A
94
74
AA
A9
E7
ENDCHAR
STARTCHAR Rcommaaccent
ENCODING 342
SWIDTH 532 0
DWIDTH 7 0
BBX 8 14 0 -4
BITMAP
78
46
B9
66
9A
94
74
AA
A9
A7
50
28
30
20
ENDCHAR
STARTCHAR rcommaaccent
ENCODING 343
SWIDTH 532 0
DWIDTH 7 0
BBX 8 14 0 -4
BITMAP
78
46
B9
66
9A
94
74
AA
A9
A7
50
28
30
20
ENDCHAR
STARTCHAR Rcaron
ENCODING 344
SWIDTH 532 0
DWIDTH 7 0
BBX 8 14 0 0
BITMAP
7C
34
28
10
78
46
B9
66
9A
94
74
AA
A9
E7
ENDCHAR
STARTCHAR rcaron
ENCODING 345
SWIDTH 532 0
DWIDTH 7 0
BBX 8 14 0 0
BITMAP
7C
34
28
10
78
46
B9
66
9A
94
74
AA
A9
E7
ENDCHAR
STARTCHAR Sacute
ENCODING 346
SWIDTH 442 0
DWIDTH 6 0
BBX 6 14 0 0
BITMAP
10
18
30
10
7C
B4
B8
50
70
28
18
54
B4
F8
ENDCHAR
STARTCHAR sacute
ENCODING 347
SWIDTH 442 0
DWIDTH 6 0
BBX 6 14 0 0
BITMAP
10
18
30
10
7C
B4
B8
50
70
28
18
54
B4
F8
ENDCHAR
STARTCHAR Scircumflex
ENCODING 348
SWIDTH 442 0
DWIDTH 6 0
BBX 6 14 0 0
BITMAP
30
58
74
08
7C
B4
B8
50
70
28
18
54
B4
F8
ENDCHAR
STARTCHAR scircumflex
ENCODING 349
SWIDTH 442 0
DWIDTH 6 0
BBX 6 14 0 0
BITMAP
30
58
74
08
7C
B4
B8
50
70
28
18
54
B4
F8
ENDCHAR
STARTCHAR Scedilla
ENCODING 350
SWIDTH 442 0
DWIDTH 6 0
BBX 6 13 0 -3
BITMAP
7C
B4
B8
50
70
28
18
54
B4
F8
10
78
60
ENDCHAR
STARTCHAR scedilla
ENCODING 351
SWIDTH 442 0
DWIDTH 6 0
BBX 6 13 0 -3
BITMAP
7C
B4
B8
50
70
28
18
54
B4
F8
10
78
60
ENDCHAR
STARTCHAR Scaron
ENCODING 352
SWIDTH 442 0
DWIDTH 6 0
BBX 6 14 0 0
BITMAP
7C
58
30
00
7C
B4
B8
50
70
28
18
54
B4
F8
ENDCHAR
STARTCHAR scaron
ENCODING 353
SWIDTH 442 0
DWIDTH 6 0
BBX 6 14 0 0
BITMAP
7C
58
30
00
7C
B4
B8
50
70
28
18
54
B4
F8
ENDCHAR
STARTCHAR Tcommaaccent
ENCODING 354
SWIDTH 453 0
DWIDTH 6 0
BBX 6 14 0 -4
BITMAP
FC
94
FC
38
28
28
38
28
28
38
20
30
60
40
ENDCHAR
STARTCHAR tcommaaccent
ENCODING 355
SWIDTH 453 0
DWIDTH 6 0
BBX 6 14 0 -4
BITMAP
FC
94
FC
38
28
28
38
28
28
38
20
30
60
40
ENDCHAR
STARTCHAR Tcaron
ENCODING 356
SWIDTH 453 0
DWIDTH 6 0
BBX 6 14 0 0
BITMAP
7C
58
30
00
FC
94
FC
38
28
28
38
28
28
38
ENDCHAR
STARTCHAR tcaron
ENCODING 357
SWIDTH 453 0
DWIDTH 6 0
BBX 6 14 0 0
BITMAP
7C
58
30
00
FC
94
FC
38
28
28
38
28
28
38
ENDCHAR
STARTCHAR Tbar
ENCODING 358
SWIDTH 455 0
DWIDTH 6 0
BBX 6 10 0 0
BITMAP
FC
94
FC
28
78
84
74
28
28
78
ENDCHAR
STARTCHAR tbar
ENCODING 359
SWIDTH 455 0
DWIDTH 6 0
BBX 6 10 0 0
BITMAP
FC
94
FC
28
78
84
74
28
28
78
ENDCHAR
STARTCHAR Utilde
ENCODING 360
SWIDTH 583 0
DWIDTH 8 0
BBX 8 14 0 0
BITMAP
1F
2E
5A
24
66
55
55
66
A5
A5
E7
BD
A9
7F
ENDCHAR
STARTCHAR utilde
ENCODING 361
SWIDTH 583 0
DWIDTH 8 0
BBX 8 14 0 0
BITMAP
1F
2E
5A
24
66
55
55
66
A5
A5
E7
BD
A9
7F
ENDCHAR
STARTCHAR Umacron
ENCODING 362
SWIDTH 583 0
DWIDTH 8 0
BBX 8 12 0 0
BITMAP
3C
18
66
55
55
66
A5
A5
E7
BD
A9
7F
ENDCHAR
STARTCHAR umacron
ENCODING 363
SWIDTH 583 0
DWIDTH 8 0
BBX 8 12 0 0
BITMAP
3C
18
66
55
55
66
A5
A5
E7
BD
A9
7F
ENDCHAR
STARTCHAR Ubreve
ENCODING 364
SWIDTH 583 0
DWIDTH 8 0
BBX 8 14 0 0
BITMAP
34
3C
34
0C
66
55
55
66
A5
A5
E7
BD
A9
7F
ENDCHAR
STARTCHAR ubreve
ENCODING 365
SWIDTH 583 0
DWIDTH 8 0
BBX 8 14 0 0
BITMAP
34
3C
34
0C
66
55
55
66
A5
A5
E7
BD
A9
7F
ENDCHAR
STARTCHAR Uring
ENCODING 366
SWIDTH 583 0
DWIDTH 8 0
BBX 8 15 0 0
BITMAP
10
2C
3A
24
18
66
55
55
66
A5
A5
E7
BD
A9
7F
ENDCHAR
STARTCHAR uring
ENCODING 367
SWIDTH 583 0
DWIDTH 8 0
BBX 8 15 0 0
BITMAP
10
2C
3A
24
18
66
55
55
66
A5
A5
E7
BD
A9
7F
ENDCHAR
STARTCHAR Uhungarumlaut
ENCODING 368
SWIDTH 583 0
DWIDTH 8 0
BBX 8 14 0 0
BITMAP
1A
15
2A
14
66
55
55
66
A5
A5
E7
BD
A9
7F
ENDCHAR
STARTCHAR uhungarumlaut
ENCODING 369
SWIDTH 583 0
DWIDTH 8 0
BBX 8 14 0 0
BITMAP
1A
15
2A
14
66
55
55
66
A5
A5
E7
BD
A9
7F
ENDCHAR
STARTCHAR Uogonek
ENCODING 370
SWIDTH 583 0
DWIDTH 8 0
BBX 8 13 0 -3
BITMAP
66
55
55
66
A5
A5
E7
BD
A9
7F
06
06
03
ENDCHAR
STARTCHAR uogonek
ENCODING 371
SWIDTH 583 0
DWIDTH 8 0
BBX 8 13 0 -3
BITMAP
66
55
55
66
A5
A5
E7
BD
A9
7F
06
06
03
ENDCHAR
STARTCHAR Wcircumflex
ENCODING 372
SWIDTH 735 0
DWIDTH 10 0
BBX 10 13 0 0
BITMAP
0C00
1600
1D00
4280
AF40
AB40
EFC0
BA40
5580
6F80
5E80
2A80
3B80
ENDCHAR
STARTCHAR wcircumflex
ENCODING 373
SWIDTH 735 0
DWIDTH 10 0
BBX 10 13 0 0
BITMAP
0C00
1600
1D00
4280
AF40
AB40
EFC0
BA40
5580
6F80
5E80
2A80
3B80
ENDCHAR
STARTCHAR Ycircumflex
ENCODING 374
SWIDTH 484 0
DWIDTH 7 0
BBX 7 13 0 0
BITMAP
30
38
74
0C
CA
AA
5C
54
24
38
28
50
30
ENDCHAR
STARTCHAR ycircumflex
ENCODING 375
SWIDTH 484 0
DWIDTH 7 0
BBX 7 13 0 0
BITMAP
30
38
74
0C
CA
AA
5C
54
24
38
28
50
30
ENDCHAR
STARTCHAR Ydieresis
ENCODING 376
SWIDTH 484 0
DWIDTH 7 0
BBX 7 12 0 0
BITMAP
68
74
2C
CA
AA
5C
54
24
38
28
50
30
ENDCHAR
STARTCHAR Zacute
ENCODING 377
SWIDTH 458 0
DWIDTH 6 0
BBX 7 14 0 0
BITMAP
08
14
28
10
7C
94
7E
14
28
48
70
9C
B4
7C
ENDCHAR
STARTCHAR zacute
ENCODING 378
SWIDTH 458 0
DWIDTH 6 0
BBX 7 14 0 0
BITMAP
08
14
28
10
7C
94
7E
14
28
48
70
9C
B4
7C
ENDCHAR
STARTCHAR Zdotaccent
ENCODING 379
SWIDTH 458 0
DWIDTH 6 0
BBX 7 13 0 0
BITMAP
10
28
10
7C
94
7E
14
28
48
70
9C
B4
7C
ENDCHAR
STARTCHAR zdotaccent
ENCODING 380
SWIDTH 458 0
DWIDTH 6 0
BBX 7 13 0 0
BITMAP
10
28
10
7C
94
7E
14
28
48
70
9C
B4
7C
ENDCHAR
STARTCHAR Zcaron
ENCODING 381
SWIDTH 458 0
DWIDTH 6 0
BBX 7 14 0 0
BITMAP
7C
58
30
00
7C
94
7E
14
28
48
70
9C
B4
7C
ENDCHAR
STARTCHAR zcaron
ENCODING 382
SWIDTH 458 0
DWIDTH 6 0
BBX 7 14 0 0
BITMAP
7C
58
30
00
7C
94
7E
14
28
48
70
9C
B4
7C
ENDCHAR
STARTCHAR AEacute
ENCODING 508
SWIDTH 797 0
DWIDTH 11 0
BBX 11 14 0 0
BITMAP
0200
0300
0600
0200
0FE0
15A0
15E0
3700
29C0
5540
7E80
BDE0
A520
C7E0
ENDCHAR
STARTCHAR aeacute
ENCODING 509
SWIDTH 797 0
DWIDTH 11 0
BBX 11 14 0 0
BITMAP
0200
0300
0600
0200
0FE0
15A0
15E0
3700
29C0
5540
7E80
BDE0
A520
C7E0
ENDCHAR
STARTCHAR Oslashacute
ENCODING 510
SWIDTH 612 0
DWIDTH 9 0
BBX 8 15 0 -1
BITMAP
04
0A
0C
08
7A
4D
79
6F
53
A5
FB
AF
D9
5F
20
ENDCHAR
STARTCHAR oslashacute
ENCODING 511
SWIDTH 612 0
DWIDTH 9 0
BBX 8 15 0 -1
BITMAP
04
0A
0C
08
7A
4D
79
6F
53
A5
FB
AF
D9
5F
20
ENDCHAR
STARTCHAR dotlessj
ENCODING 567
SWIDTH 482 0
DWIDTH 7 0
BBX 6 11 0 -1
BITMAP
0C
0C
0C
0C
0C
CC
AC
54
4C
2C
10
ENDCHAR
STARTCHAR circumflex
ENCODING 710
SWIDTH 308 0
DWIDTH 4 0
BBX 4 4 0 10
BITMAP
60
B0
F0
10
ENDCHAR
STARTCHAR caron
ENCODING 711
SWIDTH 310 0
DWIDTH 4 0
BBX 4 3 0 11
BITMAP
F0
B0
60
ENDCHAR
STARTCHAR breve
ENCODING 728
SWIDTH 333 0
DWIDTH 5 0
BBX 5 4 0 10
BITMAP
D0
E8
D0
30
ENDCHAR
STARTCHAR dotaccent
ENCODING 729
SWIDTH 166 0
DWIDTH 2 0
BBX 2 3 0 10
BITMAP
C0
C0
40
ENDCHAR
STARTCHAR ring
ENCODING 730
SWIDTH 309 0
DWIDTH 4 0
BBX 4 4 0 11
BITMAP
40
B0
F0
F0
ENDCHAR
STARTCHAR ogonek
ENCODING 731
SWIDTH 226 0
DWIDTH 3 0
BBX 3 4 0 -3
BITMAP
E0
C0
C0
60
ENDCHAR
STARTCHAR tilde
ENCODING 732
SWIDTH 410 0
DWIDTH 6 0
BBX 6 4 0 10
BITMAP
6C
B4
E8
10
ENDCHAR
STARTCHAR hungarumlaut
ENCODING 733
SWIDTH 361 0
DWIDTH 5 0
BBX 5 4 0 10
BITMAP
50
68
B0
50
ENDCHAR
STARTCHAR uni0312
ENCODING 786
SWIDTH 202 0
DWIDTH 3 0
BBX 3 3 0 7
BITMAP
40
A0
C0
ENDCHAR
STARTCHAR uni0315
ENCODING 789
SWIDTH 202 0
DWIDTH 3 0
BBX 3 3 0 7
BITMAP
40
A0
C0
ENDCHAR
STARTCHAR uni0326
ENCODING 806
SWIDTH 201 0
DWIDTH 3 0
BBX 3 4 0 -4
BITMAP
40
60
C0
40
ENDCHAR
STARTCHAR Wgrave
ENCODING 7808
SWIDTH 735 0
DWIDTH 10 0
BBX 10 13 0 0
BITMAP
0800
1400
0C00
4080
AF40
AB40
EFC0
BA40
5580
6F80
5E80
2A80
3B80
ENDCHAR
STARTCHAR wgrave
ENCODING 7809
SWIDTH 735 0
DWIDTH 10 0
BBX 10 13 0 0
BITMAP
0800
1400
0C00
4080
AF40
AB40
EFC0
BA40
5580
6F80
5E80
2A80
3B80
ENDCHAR
STARTCHAR Wacute
ENCODING 7810
SWIDTH 735 0
DWIDTH 10 0
BBX 10 13 0 0
BITMAP
0200
0500
0A00
4480
AB40
AB40
EFC0
BA40
5580
6F80
5E80
2A80
3B80
ENDCHAR
STARTCHAR wacute
ENCODING 7811
SWIDTH 735 0
DWIDTH 10 0
BBX 10 13 0 0
BITMAP
0200
0500
0A00
4480
AB40
AB40
EFC0
BA40
5580
6F80
5E80
2A80
3B80
ENDCHAR
STARTCHAR Wdieresis
ENCODING 7812
SWIDTH 735 0
DWIDTH 10 0
BBX 10 12 0 0
BITMAP
1A00
1D00
5280
AF40
AB40
EFC0
BA40
5580
6F80
5E80
2A80
3B80
ENDCHAR
STARTCHAR wdieresis
ENCODING 7813
SWIDTH 735 0
DWIDTH 10 0
BBX 10 12 0 0
BITMAP
1A00
1D00
5280
AF40
AB40
EFC0
BA40
5580
6F80
5E80
2A80
3B80
ENDCHAR
STARTCHAR Ygrave
ENCODING 7922
SWIDTH 484 0
DWIDTH 7 0
BBX 7 13 0 0
BITMAP
20
50
30
04
CA
AA
5C
54
24
38
28
50
30
ENDCHAR
STARTCHAR ygrave
ENCODING 7923
SWIDTH 484 0
DWIDTH 7 0
BBX 7 13 0 0
BITMAP
20
50
30
04
CA
AA
5C
54
24
38
28
50
30
ENDCHAR
STARTCHAR endash
ENCODING 8211
SWIDTH 591 0
DWIDTH 8 0
BBX 8 3 0 3
BITMAP
FF
95
7F
ENDCHAR
STARTCHAR emdash
ENCODING 8212
SWIDTH 726 0
DWIDTH 10 0
BBX 10 3 0 3
BITMAP
FFC0
9240
7FC0
ENDCHAR
STARTCHAR quoteleft
ENCODING 8216
SWIDTH 291 0
DWIDTH 4 0
BBX 4 5 0 5
BITMAP
70
50
A0
A0
E0
ENDCHAR
STARTCHAR quoteright
ENCODING 8217
SWIDTH 291 0
DWIDTH 4 0
BBX 4 5 0 5
BITMAP
70
50
A0
A0
E0
ENDCHAR
STARTCHAR quotesinglbase
ENCODING 8218
SWIDTH 228 0
DWIDTH 3 0
BBX 3 4 0 -2
BITMAP
40
A0
C0
C0
ENDCHAR
STARTCHAR quotedblleft
ENCODING 8220
SWIDTH 532 0
DWIDTH 7 0
BBX 7 5 0 5
BITMAP
76
5A
AE
B2
FC
ENDCHAR
STARTCHAR quotedblright
ENCODING 8221
SWIDTH 532 0
DWIDTH 7 0
BBX 7 5 0 5
BITMAP
76
5A
AE
B2
FC
ENDCHAR
STARTCHAR quotedblbase
ENCODING 8222
SWIDTH 448 0
DWIDTH 6 0
BBX 6 4 0 -2
BITMAP
4C
B4
E8
D8
ENDCHAR
STARTCHAR dagger
ENCODING 8224
SWIDTH 453 0
DWIDTH 6 0
BBX 6 12 0 -1
BITMAP
30
28
6C
AC
FC
28
28
38
28
28
48
30
ENDCHAR
STARTCHAR daggerdbl
ENCODING 8225
SWIDTH 462 0
DWIDTH 6 0
BBX 6 12 0 -1
BITMAP
10
28
6C
AC
FC
28
28
7C
AC
4C
28
30
ENDCHAR
STARTCHAR bullet
ENCODING 8226
SWIDTH 275 0
DWIDTH 4 0
BBX 2 2 1 4
BITMAP
C0
C0
ENDCHAR
STARTCHAR ellipsis
ENCODING 8230
SWIDTH 605 0
DWIDTH 8 0
BBX 8 2 0 0
BITMAP
FF
FF
ENDCHAR
STARTCHAR perthousand
ENCODING 8240
SWIDTH 1249 0
DWIDTH 17 0
BBX 17 10 0 0
BITMAP
500000
AB0000
DB0000
DF0000
BD6100
779E80
077B80
077B80
0BBD80
04F780
ENDCHAR
STARTCHAR guilsinglleft
ENCODING 8249
SWIDTH 359 0
DWIDTH 5 0
BBX 5 6 0 2
BITMAP
38
48
90
F0
48
38
ENDCHAR
STARTCHAR guilsinglright
ENCODING 8250
SWIDTH 359 0
DWIDTH 5 0
BBX 5 6 0 2
BITMAP
E0
90
68
78
90
E0
ENDCHAR
STARTCHAR fraction
ENCODING 8260
SWIDTH 266 0
DWIDTH 4 0
BBX 4 9 0 0
BITMAP
70
50
50
60
60
60
A0
C0
C0
ENDCHAR
STARTCHAR Euro
ENCODING 8364
SWIDTH 690 0
DWIDTH 10 0
BBX 9 10 0 0
BITMAP
1F00
1280
1F80
7800
5400
6800
B800
6F80
2A80
1F80
ENDCHAR
STARTCHAR partialdiff
ENCODING 8706
SWIDTH 519 0
DWIDTH 7 0
BBX 7 10 0 0
BITMAP
18
14
14
1C
34
4A
BE
DA
CA
3E
ENDCHAR
STARTCHAR minus
ENCODING 8722
SWIDTH 467 0
DWIDTH 7 0
BBX 6 3 0 3
BITMAP
FC
94
7C
ENDCHAR
STARTCHAR fi
ENCODING 64257
SWIDTH 741 0
DWIDTH 10 0
BBX 10 10 0 0
BITMAP
7EC0
AB40
9F40
61C0
BD40
A540
F9C0
A140
A140
E1C0
ENDCHAR
STARTCHAR fl
ENCODING 64258
SWIDTH 942 0
DWIDTH 13 0
BBX 13 10 0 0
BITMAP
7EC0
AB40
9F40
61C0
BD40
A540
F9C0
A178
A148
E1F8
ENDCHAR
STARTCHAR .notdef
ENCODING -1
SWIDTH 200 0
DWIDTH 3 0
BBX 1 1 0 0
BITMAP
00
ENDCHAR
STARTCHAR .null
ENCODING -1
SWIDTH 0 0
DWIDTH 0 0
BBX 1 1 0 0
BITMAP
00
ENDCHAR
STARTCHAR nonmarkingreturn
ENCODING -1
SWIDTH 200 0
DWIDTH 3 0
BBX 1 1 0 0
BITMAP
00
ENDCHAR
ENDFONT
